<svg xmlns="http://www.w3.org/2000/svg" xmlns:xlink="http://www.w3.org/1999/xlink" viewBox="967.777 453.8 397.194 432.644">
  <defs>
    <style>
      .cls-1 {
        fill: none;
      }

      .cls-2 {
        fill: url(#linear-gradient);
      }

      .cls-3 {
        fill: url(#linear-gradient-2);
      }

      .cls-4 {
        fill: url(#linear-gradient-3);
      }

      .cls-5 {
        fill: #242993;
      }

      .cls-6 {
        opacity: 0.51;
      }

      .cls-7 {
        fill: #4553c7;
      }

      .cls-8 {
        fill: url(#linear-gradient-4);
      }

      .cls-9 {
        fill: url(#linear-gradient-5);
      }

      .cls-10 {
        fill: #2859cb;
      }

      .cls-11 {
        fill: #adc8ff;
      }

      .cls-12 {
        fill: #91afff;
      }

      .cls-13 {
        fill: url(#linear-gradient-6);
      }

      .cls-14 {
        opacity: 0.11;
      }

      .cls-15 {
        clip-path: url(#clip-path);
      }

      .cls-16 {
        fill: url(#linear-gradient-7);
      }

      .cls-17 {
        fill: url(#linear-gradient-8);
      }

      .cls-18 {
        fill: #42ffff;
      }
    </style>
    <linearGradient id="linear-gradient" x1="-7.934" y1="0.5" x2="-6.934" y2="0.5" gradientUnits="objectBoundingBox">
      <stop offset="0" stop-color="#42ffff"/>
      <stop offset="0.15" stop-color="#43faff"/>
      <stop offset="0.33" stop-color="#45ecff"/>
      <stop offset="0.52" stop-color="#49d4ff"/>
      <stop offset="0.72" stop-color="#4eb3ff"/>
      <stop offset="0.93" stop-color="#5489ff"/>
      <stop offset="1" stop-color="#5778ff"/>
    </linearGradient>
    <linearGradient id="linear-gradient-2" x1="-11.142" y1="0.5" x2="-10.142" y2="0.5" gradientUnits="objectBoundingBox">
      <stop offset="0" stop-color="#c0d6ff"/>
      <stop offset="0.3" stop-color="#c5dbff"/>
      <stop offset="0.65" stop-color="#d3e9ff"/>
      <stop offset="1" stop-color="#e9ffff"/>
    </linearGradient>
    <linearGradient id="linear-gradient-3" x1="-69.711" y1="0.5" x2="-68.711" y2="0.5" gradientUnits="objectBoundingBox">
      <stop offset="0" stop-color="#5778ff"/>
      <stop offset="0.18" stop-color="#5c7dff"/>
      <stop offset="0.39" stop-color="#6a8aff"/>
      <stop offset="0.61" stop-color="#82a0ff"/>
      <stop offset="0.85" stop-color="#a3beff"/>
      <stop offset="1" stop-color="#bcd5ff"/>
    </linearGradient>
    <linearGradient id="linear-gradient-4" x1="-7.405" y1="0.5" x2="-6.405" y2="0.5" xlink:href="#linear-gradient-3"/>
    <linearGradient id="linear-gradient-5" x1="-7.065" y1="0.5" x2="-6.065" y2="0.5" xlink:href="#linear-gradient-2"/>
    <linearGradient id="linear-gradient-6" x1="-27.872" y1="0.5" x2="-26.872" y2="0.5" xlink:href="#linear-gradient-2"/>
    <clipPath id="clip-path">
      <path id="SVGID" class="cls-1" d="M126.7,9.06,340.972,138.38,314.4,302.146,100.27,172.9Z" transform="translate(-100.27 -9.06)"/>
    </clipPath>
    <linearGradient id="linear-gradient-7" x1="-7.829" y1="0.5" x2="-6.829" y2="0.5" xlink:href="#linear-gradient-2"/>
    <linearGradient id="linear-gradient-8" x1="-32.694" y1="0.5" x2="-31.694" y2="0.5" xlink:href="#linear-gradient-2"/>
  </defs>
  <g id="Asset_1lptp" data-name="Asset 1lptp" transform="translate(967.777 453.8)">
    <g id="Ñëîé_1" data-name="Ñëîé 1" transform="translate(0)">
      <path id="Path_208" data-name="Path 208" class="cls-2" d="M220.68,356.268a18.351,18.351,0,0,1-9.456-2.63L11.569,233.13a4.964,4.964,0,0,1,0-8.419L136.59,149.26l.969.589,208.2,125.617a4.964,4.964,0,0,1,0,8.419L230.107,353.639a18.352,18.352,0,0,1-9.427,2.63ZM136.59,153.945,13.507,228.233a.777.777,0,0,0-.39.7.808.808,0,0,0,.39.7L213.161,350.117a14.528,14.528,0,0,0,15.037,0l115.565-69.754a.777.777,0,0,0,.39-.7.808.808,0,0,0-.39-.7Z" transform="translate(4.113 76.376)"/>
      <path id="Path_209" data-name="Path 209" class="cls-3" d="M97.154,175.809l27.8-172.5-2.227-1L126.085.3h0a2.315,2.315,0,0,1,2.66.212L350.969,134.683a6.667,6.667,0,0,1,2.892,5.895L325.826,314.47a2.192,2.192,0,0,1-1.171,1.768h0l-3.3,1.98-.564-3.2h.188L100.031,181.719A6.639,6.639,0,0,1,97.154,175.809Z" transform="translate(43.304 0.024)"/>
      <path id="Path_210" data-name="Path 210" class="cls-4" d="M284.149,92.793l3.658-1.693a5.486,5.486,0,0,1,.477,2.872L260.25,267.864a2.192,2.192,0,0,1-1.171,1.768h0l-3.3,1.98-.564-3.2h.188l-11.176-6.666Z" transform="translate(108.88 46.63)"/>
      <path id="Path_211" data-name="Path 211" class="cls-5" d="M97.625,183.088l222.3,134.172c1.721,1.043,3.2.438,3.484-1.421l28.049-173.817a6.684,6.684,0,0,0-2.892-5.91L126.266,1.88c-1.721-1.028-3.2-.438-3.5,1.421L94.733,177.193a6.668,6.668,0,0,0,2.892,5.895Z" transform="translate(42.226 0.741)"/>
      <g id="Group_20" data-name="Group 20" class="cls-6" transform="translate(144.969 13.73)">
        <path id="Path_212" data-name="Path 212" class="cls-7" d="M126.7,9.06,340.972,138.38,314.4,302.146,100.27,172.9Z" transform="translate(-100.27 -9.06)"/>
      </g>
      <path id="Path_213" data-name="Path 213" class="cls-8" d="M.08,198.953l12.131,6.62,121.652-73.411a8.439,8.439,0,0,1,7.938.333L351.6,259.124c2.01-1.164,11.162-5.774,11.162-5.774l-4.439,12.092h0a2.765,2.765,0,0,1-1.243,1.511L228.969,344.279a8.48,8.48,0,0,1-7.938-.348L6.312,214.279a4,4,0,0,1-1.807-2.01h0Z" transform="translate(0.031 67.204)"/>
      <path id="Path_214" data-name="Path 214" class="cls-9" d="M1.994,206.215,222.035,339.026a8.716,8.716,0,0,0,8.14.348l131.281-79.245c2.082-1.27,1.822-3.461-.578-4.912L140.851,122.405a8.675,8.675,0,0,0-8.14-.348L1.444,201.3C-.681,202.512-.421,204.764,1.994,206.215Z" transform="translate(-0.003 62.028)"/>
      <path id="Path_215" data-name="Path 215" class="cls-10" d="M202.288,247.26v-2.524c0-.242-.145-.348-.3-.242l-8.516,5.139a.766.766,0,0,0-.318.62v2.585c0,.227.145.348.318.242l8.516-5.139a.816.816,0,0,0,.3-.68Z" transform="translate(86.107 125.062)"/>
      <path id="Path_216" data-name="Path 216" class="cls-10" d="M193.488,252.34v-2.524c0-.242-.145-.348-.318-.242l-8.5,5.139a.781.781,0,0,0-.318.62V257.8c0,.242.145.348.318.242l8.5-5.139a.778.778,0,0,0,.318-.559Z" transform="translate(82.184 127.66)"/>
      <path id="Path_217" data-name="Path 217" class="cls-11" d="M304.211,245.724,121.357,135.388a3.785,3.785,0,0,0-3.947,0L52.347,174.761a1.549,1.549,0,0,0,0,2.554L235.115,287.652a3.758,3.758,0,0,0,3.933,0l65.192-39.3a1.546,1.546,0,0,0-.029-2.63Z" transform="translate(23.034 68.997)"/>
      <path id="Path_218" data-name="Path 218" class="cls-12" d="M304.205,248.283l-.651.393L121.38,138.7a3.854,3.854,0,0,0-3.947,0l-64.455,39-.651-.393a1.549,1.549,0,0,1,0-2.554l65.062-39.373a3.785,3.785,0,0,1,3.947,0L304.191,245.714a1.548,1.548,0,0,1,.014,2.569Z" transform="translate(23.025 68.992)"/>
      <path id="Path_219" data-name="Path 219" class="cls-5" d="M93.74,143.232l158.839,95.856,7.056-4.262L100.81,138.97Z" transform="translate(41.787 71.113)"/>
      <path id="Path_220" data-name="Path 220" class="cls-5" d="M81.77,150.142l148.978,89.916L237.8,235.8,88.826,145.88Z" transform="translate(36.451 74.647)"/>
      <path id="Path_221" data-name="Path 221" class="cls-5" d="M73.97,154.657,249.378,260.52l7.056-4.262L81.026,150.38Z" transform="translate(32.973 76.948)"/>
      <path id="Path_222" data-name="Path 222" class="cls-5" d="M66.17,159.152,241.578,265.014l7.056-4.262L73.226,154.89Z" transform="translate(29.496 79.255)"/>
      <path id="Path_223" data-name="Path 223" class="cls-5" d="M58.37,163.652,233.778,269.514l7.056-4.247L65.426,159.39Z" transform="translate(26.018 81.557)"/>
      <path id="Path_224" data-name="Path 224" class="cls-5" d="M210.24,210.492l7.056,4.262,7.07-4.262-7.07-4.262Z" transform="translate(93.726 105.513)"/>
      <path id="Path_225" data-name="Path 225" class="cls-5" d="M193.01,214.372l14.661,8.842,7.056-4.262-14.661-8.842Z" transform="translate(86.045 107.498)"/>
      <path id="Path_226" data-name="Path 226" class="cls-13" d="M110.651,244.542,61.348,214.8c-1.937-1.164-1.937-3.023,0-4.217l33.7-20.344a7.423,7.423,0,0,1,6.983,0l49.3,29.745c1.923,1.164,1.923,3.023,0,4.217L117.62,244.542a7.4,7.4,0,0,1-6.969,0Z" transform="translate(26.698 96.886)"/>
      <path id="Path_227" data-name="Path 227" class="cls-12" d="M151.329,221.724l-49.361-29.745a7.423,7.423,0,0,0-6.983,0L61.341,212.323a3.059,3.059,0,0,0-1.215,1.239c-.506-1.013-.13-2.161,1.215-3.023l33.7-20.344a7.423,7.423,0,0,1,6.983,0l49.3,29.745c1.33.816,1.721,1.95,1.214,3.023A3.178,3.178,0,0,0,151.329,221.724Z" transform="translate(26.705 96.866)"/>
      <g id="Group_22" data-name="Group 22" class="cls-14" transform="translate(144.969 13.73)">
        <g id="Group_21" data-name="Group 21" class="cls-15">
          <path id="Path_228" data-name="Path 228" class="cls-16" d="M97.886,150.585l220.041,132.8a8.675,8.675,0,0,0,8.14.363l131.3-79.245c2.1-1.27,1.822-3.461-.578-4.912L236.743,66.775a8.675,8.675,0,0,0-8.14-.348L97.293,145.673C95.211,146.927,95.472,149.134,97.886,150.585Z" transform="translate(-102.224 19.846)"/>
          <path id="Path_229" data-name="Path 229" class="cls-17" d="M265.557,156.247l-49.3-29.76c-1.923-1.164-1.923-3.023,0-4.2l33.717-20.359a7.423,7.423,0,0,1,6.983,0l49.3,29.76c1.923,1.164,1.923,3.023,0,4.217l-33.717,20.344a7.423,7.423,0,0,1-6.983,0Z" transform="translate(-49.204 37.99)"/>
          <path id="Path_230" data-name="Path 230" class="cls-12" d="M306.235,133.429l-49.245-29.76a7.423,7.423,0,0,0-6.983,0L216.29,124.028a3.163,3.163,0,0,0-1.214,1.239c-.506-1.013-.116-2.161,1.214-3.023l33.717-20.359a7.423,7.423,0,0,1,6.983,0l49.3,29.761c1.33.8,1.721,1.95,1.2,3.023a3.039,3.039,0,0,0-1.258-1.239Z" transform="translate(-49.181 37.969)"/>
          <path id="Path_231" data-name="Path 231" class="cls-11" d="M370.917,205.86,188.063,95.524a3.854,3.854,0,0,0-3.947,0l-65.062,39.388a1.549,1.549,0,0,0,0,2.539L301.821,247.788a3.758,3.758,0,0,0,3.933,0l65.207-39.3a1.546,1.546,0,0,0-.043-2.63Z" transform="translate(-92.19 34.884)"/>
          <path id="Path_232" data-name="Path 232" class="cls-12" d="M370.926,208.389l-.665.393L188.087,98.824a3.785,3.785,0,0,0-3.947,0L119.685,137.8l-.651-.393a1.549,1.549,0,0,1,0-2.539L184.1,95.484a3.854,3.854,0,0,1,3.947,0L370.9,205.82a1.548,1.548,0,0,1,.029,2.569Z" transform="translate(-92.199 34.864)"/>
          <path id="Path_233" data-name="Path 233" class="cls-5" d="M132.544,119.6l159.3,96.143-6.3,3.809-159.3-96.143Z" transform="translate(-88.692 47.476)"/>
          <path id="Path_234" data-name="Path 234" class="cls-5" d="M144.154,112.9l151.407,91.382-6.3,3.809L137.85,116.709Z" transform="translate(-83.516 44.049)"/>
          <path id="Path_235" data-name="Path 235" class="cls-5" d="M256.694,177.88l14.14,8.525-6.3,3.809-14.14-8.525Z" transform="translate(-33.342 77.283)"/>
          <path id="Path_236" data-name="Path 236" class="cls-5" d="M248.054,186.29l9.861,5.94-6.318,3.824L241.75,190.1Z" transform="translate(-37.194 81.585)"/>
          <path id="Path_237" data-name="Path 237" class="cls-5" d="M151.438,108.7,328.292,215.439l-6.318,3.809L145.12,112.509Z" transform="translate(-80.275 41.901)"/>
          <path id="Path_238" data-name="Path 238" class="cls-5" d="M158.7,104.5,335.558,211.239l-6.3,3.809L152.4,108.309Z" transform="translate(-77.029 39.753)"/>
          <path id="Path_239" data-name="Path 239" class="cls-5" d="M165.974,100.3,342.842,207.039l-6.318,3.809L159.67,104.109Z" transform="translate(-73.788 37.605)"/>
        </g>
      </g>
      <path id="Path_240" data-name="Path 240" class="cls-18" d="M253.05,102.15l4.222,2.826.52-3.28-4.222-2.826Z" transform="translate(112.812 50.604)"/>
      <path id="Path_241" data-name="Path 241" class="cls-18" d="M250.66,122.205l4.222,2.826,2.993-19.2-4.222-2.826Z" transform="translate(111.747 52.721)"/>
      <path id="Path_242" data-name="Path 242" class="cls-18" d="M249.51,125.293l4.222,2.826,1.186-7.618L250.7,117.69Z" transform="translate(111.234 60.229)"/>
      <path id="Path_243" data-name="Path 243" class="cls-18" d="M248.32,132.578l4.222,2.811,1.2-7.6-4.222-2.826Z" transform="translate(110.704 63.947)"/>
      <path id="Path_244" data-name="Path 244" class="cls-18" d="M247.55,107.848l4.222,2.826,1.186-7.618-4.222-2.826Z" transform="translate(110.36 51.299)"/>
      <path id="Path_245" data-name="Path 245" class="cls-18" d="M245.97,118.685l4.236,2.826,1.735-11.185-4.222-2.826Z" transform="translate(109.656 55.017)"/>
      <path id="Path_246" data-name="Path 246" class="cls-18" d="M244.53,127l4.222,2.826,1.5-9.583-4.236-2.826Z" transform="translate(109.014 60.091)"/>
      <path id="Path_247" data-name="Path 247" class="cls-18" d="M247.13,139.848l4.236,2.826,1.186-7.618-4.222-2.826Z" transform="translate(110.173 67.666)"/>
      <path id="Path_248" data-name="Path 248" class="cls-18" d="M248.69,99.36l4.236,2.826.506-3.28-4.222-2.826Z" transform="translate(110.869 49.177)"/>
      <path id="Path_249" data-name="Path 249" class="cls-18" d="M243.8,144.009l7.388,4.927.492-3.174-7.374-4.942Z" transform="translate(108.688 72.059)"/>
    </g>
  </g>
</svg>
