<svg xmlns="http://www.w3.org/2000/svg" viewBox="0 0 834.43 543.13"><defs><style>.cls-1{fill:#fff;}</style></defs><title>Asset 2laptop</title><g id="Layer_2" data-name="Layer 2"><g id="Layer_1-2" data-name="Layer 1"><path d="M791.56,475.68c0,16.69,0,32.51,0,48.33,0,12.52-1.43,14-14,14-21.9.05-43.79.09-65.68,0-10.45-.06-12.54-2.3-12.59-12.85-.06-16.15,0-32.29,0-48.19-6.61-2.88-7.16.53-7.13,5.1q.15,20.25,0,40.49c-.11,14.73-6,20.57-20.71,20.57q-107.52,0-215,0c-15.17,0-20.29-5.16-20.39-20.59-.09-15.22,0-30.44,0-46.24h-52.4a60.87,60.87,0,0,0-.55,7.22c.43,9.1-4.71,13.85-12.72,16a41,41,0,0,1-10.65,1.28q-147.55.1-295.11,0a45.11,45.11,0,0,1-7.17-.38c-11.92-1.88-16.57-7.29-16.57-19.29q0-90,0-179.95V286.84c0-21.64,1.22-23.15,22.82-27.5V248.88q0-111.57,0-223.13C63.67,7.71,71.23,0,89.34,0Q448.79,0,808.23,0c18.22,0,26.19,8.14,26.19,26.42q0,210.54,0,421.07c0,19.79-7.92,27.85-27.62,28.15C802.08,475.74,797.34,475.68,791.56,475.68ZM436,423c0-16-.1-31,0-45.91s5.39-20,20-20l215,0c15.34,0,21,5.67,21.14,21.07.07,12.6-.19,25.19.18,37.77.08,2.5,2.32,4.94,3.56,7.41,1.13-2.59,2.8-5.08,3.24-7.77.56-3.51.15-7.18.14-10.78,0-6.52,3.05-10.19,9.76-10.2q36.42-.06,72.85,0c6.7,0,9.79,3.47,9.65,10.14-.12,5.92,0,11.85,0,18.21h10.69V41.6h-707V260c3.23.15,5.88.36,8.53.36q101.19,0,202.37,0c19.19,0,38.38-.2,57.56.08,13.78.2,19.33,6.28,19.33,19.92q0,66.56,0,133.11c0,3.15.29,6.3.46,9.61ZM51.15,270V481.78h322V270ZM664.6,521.09V377.77H462.07V521.09ZM784,410.61H707V517.68h77ZM449.69,439.75l-4.25.17c-2.17,3.65-6.54,7.75-5.91,10.82.69,3.37,5.75,7.51,9.37,8,2.23.31,7.38-5.51,7.44-8.66C456.42,446.69,452.09,443.2,449.69,439.75Zm295.51,79c-3,4.7-6.51,7.86-6,9.94.73,2.73,4.66,4.61,7.22,6.85,2-2.47,5.59-4.92,5.63-7.42S748.61,523.1,745.2,518.74Z"/><path d="M1.64,506.65h194c-1.88,10.7-.27,12.62,10.88,12.76,4.49.05,9,.13,13.48,0,9.55-.34,11.38-3.14,8.06-12.72H424.46c-4.86,4.81-7.45,9.1-11.18,10.65a48.94,48.94,0,0,1-18.19,3.86q-183.82.32-367.63,0a51.8,51.8,0,0,1-18.23-3.82C5.64,516,3,512,0,509.2Z"/><path class="cls-1" d="M449.69,439.75c2.4,3.45,6.73,6.94,6.65,10.34-.06,3.15-5.21,9-7.44,8.66-3.62-.5-8.68-4.64-9.37-8-.63-3.07,3.74-7.17,5.91-10.82Z"/><path class="cls-1" d="M745.2,518.74c3.41,4.36,6.93,6.9,6.89,9.37s-3.61,4.95-5.63,7.42c-2.56-2.24-6.49-4.12-7.22-6.85C738.69,526.6,742.2,523.44,745.2,518.74Z"/></g></g></svg>